<svg width="39" height="50" viewBox="0 0 39 50" fill="none" xmlns="http://www.w3.org/2000/svg">
<path d="M26.5207 9.53605C23.9165 12.5223 21.2329 12.9221 19.488 12.9221C19.488 10.8197 19.2819 8.48043 21.8862 5.49423C24.4904 2.50803 26.8699 2.10815 28.9189 2.10815C28.9197 4.15783 29.125 6.54985 26.5207 9.53605Z" fill="#2A9D8F"/>
<path d="M19.9879 15.9718C29.5003 11.393 35.3615 15.4594 37.4113 18.0207C26.1374 27.7573 36.8989 36.469 38.9487 36.9814C38.4362 40.0561 34.1765 45.6951 32.2868 47.7429C29.2761 50.5954 26.1374 48.7678 22.5502 47.7429C21.5693 47.4627 18.5627 47.4847 17.9381 47.7429C14.8634 48.7698 13.0489 49.3445 11.7887 49.2803C4.29405 48.8983 0.00225816 35.4441 0.0022583 26.2199C0.00225839 20.0705 5.83141 13.9228 10.7638 13.9228C16.1125 13.6348 17.4737 15.3484 19.9879 15.9718Z" fill="#2A9D8F"/>
</svg>
