<svg width="46" height="46" viewBox="0 0 46 46" fill="none" xmlns="http://www.w3.org/2000/svg">
<path d="M29.8428 35.0509L36.3732 40.4198C33.0015 43.026 27.1001 44.9832 20.9972 44.5369C14.7342 44.0789 8.29515 41.0936 4.18448 33.7006L10.5181 28.4133C11.8259 31.0114 14.0091 33.8071 17.1014 35.434C20.3949 37.1668 24.6551 37.5389 29.8428 35.0509Z" fill="#2A9D8F" stroke="#2A9D8F"/>
<path d="M23.6514 19.0926C23.6514 19.0926 44.6349 19.0926 44.981 19.0926C45.1503 21.4464 45.1503 21.7926 45.1503 23.4285C45.1503 26.8839 44.981 27.6044 44.981 27.6044H35.6218H23.6514V19.0926Z" fill="#2A9D8F"/>
<path d="M37.1592 40.4253C41.1056 37.4107 44.3199 33.3393 44.981 27.6044H35.6218C34.6396 30.2234 32.0983 33.1865 29.9276 34.4764L37.1592 40.4253Z" fill="#2A9D8F"/>
<path d="M3.99941 12.6058C9.32187 2.18272 23.4832 -3.16411 36.7096 5.66631L30.1472 11.0973C24.5055 8.98474 20.0064 9.72561 16.6715 11.5706C13.6033 13.268 11.5528 15.8811 10.4954 17.9816L3.99941 12.6058Z" fill="#2A9D8F" stroke="#2A9D8F"/>
<path d="M10.1452 27.5844L3.71923 32.8528C-0.329349 24.9976 1.3275 18.0311 3.57443 13.4546L10.1458 18.813C9.64389 20.2434 9.44577 21.8787 9.47161 23.4303C9.49694 24.9507 9.73794 26.4255 10.1452 27.5844Z" fill="#2A9D8F" stroke="#2A9D8F"/>
</svg>
