<svg width="48" height="48" viewBox="0 0 48 48" fill="none" xmlns="http://www.w3.org/2000/svg">
<g clip-path="url(#clip0_7_11083)">
<path d="M23.0437 0.0224991C22.2337 0.0712471 21.5775 0.127499 21.0562 0.19125C17.325 0.64875 13.83 1.9425 10.7063 4.02375C7.305 6.28875 4.52625 9.3975 2.65875 13.0312C1.1775 15.915 0.3525 18.84 0.07125 22.2188C0.0075 22.9425 0.0075 25.0575 0.07125 25.7813C0.3525 29.16 1.1775 32.085 2.65875 34.9688C4.94625 39.4238 8.57625 43.0538 13.0312 45.3413C15.915 46.8225 18.84 47.6475 22.2188 47.9288C22.9425 47.9925 25.0575 47.9925 25.7812 47.9288C29.16 47.6475 32.085 46.8225 34.9688 45.3413C39.42 43.0538 43.0537 39.42 45.3412 34.9688C46.8225 32.085 47.6475 29.16 47.9287 25.7813C47.9925 25.0575 47.9925 22.9425 47.9287 22.2188C47.6475 18.84 46.8225 15.915 45.3412 13.0312C43.0537 8.57625 39.4237 4.94625 34.9688 2.65875C32.145 1.2075 29.2275 0.37125 26.0062 0.09375C25.3912 0.0374985 23.5087 -0.00749969 23.0437 0.0224991ZM25.815 2.94375C29.9325 3.29625 33.7687 4.815 37.0687 7.39875C38.5725 8.57625 40.0837 10.1662 41.2162 11.7562C43.4587 14.9062 44.7562 18.48 45.0788 22.4063C45.1387 23.13 45.1387 24.87 45.0788 25.5938C44.6512 30.7875 42.48 35.4488 38.8088 39.06C35.2087 42.5925 30.6637 44.6625 25.5938 45.0788C24.87 45.1388 23.13 45.1388 22.4062 45.0788C17.3363 44.6625 12.8025 42.6 9.195 39.06C5.52375 35.46 3.34125 30.7725 2.92125 25.5938C2.865 24.87 2.865 23.13 2.92125 22.4063C3.34125 17.2163 5.52 12.5475 9.21375 8.92125C12.4837 5.71125 16.6575 3.66 21.15 3.06C22.71 2.85375 24.27 2.8125 25.815 2.94375Z" fill="#2A9D8F"/>
<path d="M18.975 7.7325C18.7688 7.78875 16.4288 9.15375 16.29 9.3C15.9713 9.62625 15.9038 10.0725 16.1138 10.4813C16.365 10.965 20.4375 17.9888 20.5425 18.1125C20.7563 18.3675 21.21 18.5063 21.5438 18.4163C21.7163 18.3713 24.0263 17.0475 24.225 16.8825C24.4913 16.6613 24.63 16.17 24.5175 15.8438C24.4875 15.7613 23.4825 13.9875 22.2825 11.9063C20.5163 8.8425 20.0663 8.08875 19.9275 7.96125C19.6725 7.72125 19.3125 7.635 18.975 7.7325Z" fill="#2A9D8F"/>
<path d="M14.7938 10.9912C13.1288 11.9962 12.3413 12.8362 11.9625 14.01C11.7713 14.6062 11.7263 14.97 11.73 15.8437C11.7375 18.0225 12.285 20.5275 13.3688 23.3625C15.8438 29.8088 20.4938 36.255 24.6975 39.0638C25.9875 39.9225 26.82 40.2488 27.8625 40.3013C28.8263 40.3463 29.7788 40.065 31.1513 39.3263C31.575 39.0975 31.7175 39.0038 31.7025 38.9625C31.68 38.8988 27.27 31.245 27.2138 31.1737C27.1875 31.1363 27.1463 31.1437 27.0375 31.2C26.5463 31.4512 25.875 31.5675 25.3313 31.5C24.2738 31.3612 23.25 30.7875 22.1775 29.7187C21.1875 28.7362 20.4488 27.7012 19.7588 26.325C18.2438 23.3062 18.0488 20.4937 19.2563 19.0762C19.38 18.93 19.7963 18.5812 19.8788 18.555C19.9088 18.5437 19.065 17.0512 17.6663 14.6212C16.4213 12.4687 15.3938 10.695 15.3788 10.68C15.3675 10.665 15.105 10.8037 14.7938 10.9912Z" fill="#2A9D8F"/>
<path d="M30.825 28.0125C30.6188 28.0388 30.6525 28.0238 29.2763 28.815C28.6613 29.1675 28.0988 29.5125 28.0275 29.58C27.7425 29.8575 27.6375 30.3 27.78 30.6563C27.9 30.9638 32.1525 38.295 32.2913 38.4375C32.5988 38.7525 33.0525 38.8275 33.4688 38.6288C33.7913 38.475 35.7713 37.3275 35.925 37.2038C36.135 37.035 36.2625 36.7538 36.2625 36.45C36.2625 36.3113 36.2363 36.1388 36.2063 36.0638C36.0825 35.7638 31.8188 28.4325 31.695 28.305C31.4663 28.065 31.1663 27.9638 30.825 28.0125Z" fill="#2A9D8F"/>
</g>
<defs>
<clipPath id="clip0_7_11083">
<rect width="48" height="48" fill="white"/>
</clipPath>
</defs>
</svg>
