<svg width="16" height="16" viewBox="0 0 16 16" fill="none" xmlns="http://www.w3.org/2000/svg">
<path d="M6.44349 16H6.42084C5.97529 15.9924 5.57505 15.7206 5.40136 15.3052C3.57384 10.9857 1.78409 6.57547 0.0774018 2.19548C-0.149149 1.61399 0.137815 0.956996 0.726849 0.730445C1.30833 0.503893 1.96533 0.790859 2.19188 1.37234C3.58139 4.9443 5.02377 8.53891 6.50391 12.0882C8.44469 8.03295 10.5592 3.96258 13.4817 0.413273C13.8744 -0.0700364 14.5918 -0.138002 15.0751 0.254687C15.5584 0.654928 15.6264 1.36479 15.2337 1.8481C11.9411 5.85806 9.66807 10.6836 7.47052 15.3506C7.28173 15.7508 6.88149 16 6.44349 16Z" fill="#2A9D8F"/>
</svg>
