<svg width="114" height="35" viewBox="0 0 114 35" fill="none" xmlns="http://www.w3.org/2000/svg">
<path d="M6.33613 22V2.112H9.55213V22H6.33613ZM0.320125 4.24V1.552H15.5521V4.24H0.320125ZM25.7621 22L25.8901 18.288L25.7781 17.808V12.88L25.7941 12.096C25.7941 10.8907 25.4848 10.0053 24.8661 9.44C24.2581 8.87467 23.2768 8.592 21.9221 8.592C20.8235 8.592 19.8048 8.74667 18.8661 9.056C17.9275 9.36533 17.0795 9.72267 16.3221 10.128L16.6101 7.504C17.0368 7.25867 17.5381 7.01867 18.1141 6.784C18.6901 6.54933 19.3408 6.35733 20.0661 6.208C20.7915 6.05867 21.5861 5.984 22.4501 5.984C23.6341 5.984 24.6368 6.128 25.4581 6.416C26.2795 6.69333 26.9408 7.09867 27.4421 7.632C27.9435 8.16533 28.3061 8.80533 28.5301 9.552C28.7648 10.2987 28.8821 11.1307 28.8821 12.048V22H25.7621ZM20.4661 22.352C18.9195 22.352 17.7355 21.9733 16.9141 21.216C16.0928 20.448 15.6821 19.36 15.6821 17.952V17.472C15.6821 15.9787 16.1408 14.8747 17.0581 14.16C17.9861 13.4347 19.4421 12.9333 21.4261 12.656L26.1301 11.984L26.3061 14.256L21.7941 14.896C20.7168 15.0453 19.9488 15.3067 19.4901 15.68C19.0315 16.0427 18.8021 16.5813 18.8021 17.296V17.52C18.8021 18.2347 19.0208 18.784 19.4581 19.168C19.9061 19.552 20.5835 19.744 21.4901 19.744C22.3221 19.744 23.0368 19.6053 23.6341 19.328C24.2315 19.0507 24.7168 18.6827 25.0901 18.224C25.4635 17.7547 25.7195 17.2373 25.8581 16.672L26.2901 18.768H25.7141C25.5435 19.408 25.2608 20 24.8661 20.544C24.4715 21.088 23.9168 21.5253 23.2021 21.856C22.4981 22.1867 21.5861 22.352 20.4661 22.352ZM32.6414 22V6.352H35.7774V22H32.6414ZM34.2094 4.048C33.5907 4.048 33.1267 3.89333 32.8174 3.584C32.5187 3.264 32.3694 2.82667 32.3694 2.272V2.208C32.3694 1.65333 32.5187 1.22133 32.8174 0.911999C33.1267 0.591999 33.5907 0.431999 34.2094 0.431999C34.828 0.431999 35.2867 0.591999 35.5854 0.911999C35.8947 1.22133 36.0494 1.65333 36.0494 2.208V2.272C36.0494 2.83733 35.8947 3.27467 35.5854 3.584C35.2867 3.89333 34.828 4.048 34.2094 4.048ZM39.8761 22V0.815998H43.0121V22H39.8761ZM49.5429 22V19.36H55.6709C56.9722 19.36 57.8949 19.0933 58.4389 18.56C58.9829 18.0267 59.2549 17.28 59.2549 16.32V15.824C59.2549 14.8427 58.9775 14.0907 58.4229 13.568C57.8682 13.0347 56.9082 12.768 55.5429 12.768H49.5269V10.24H55.5109C56.7375 10.24 57.6069 9.984 58.1189 9.472C58.6415 8.94933 58.9029 8.224 58.9029 7.296V7.04C58.9029 6.13333 58.6522 5.42933 58.1509 4.928C57.6495 4.42667 56.7642 4.176 55.4949 4.176H49.4789V1.552H55.7989C58.0495 1.552 59.6655 1.984 60.6469 2.848C61.6282 3.70133 62.1189 4.928 62.1189 6.528V6.816C62.1189 8.04267 61.8362 8.99733 61.2709 9.68C60.7055 10.352 59.8309 10.768 58.6469 10.928V11.088C60.0015 11.3547 60.9829 11.872 61.5909 12.64C62.2095 13.408 62.5189 14.4907 62.5189 15.888V16.496C62.5189 18.2453 62.0069 19.6 60.9829 20.56C59.9589 21.52 58.3002 22 56.0069 22H49.5429ZM47.3189 22V1.552H50.4869V22H47.3189ZM72.2754 22.4C69.9714 22.4 68.222 21.7867 67.0274 20.56C65.8327 19.3333 65.2354 17.568 65.2354 15.264V13.04C65.2354 10.7467 65.8327 8.992 67.0274 7.776C68.222 6.54933 69.9714 5.936 72.2754 5.936C74.5794 5.936 76.3234 6.54933 77.5074 7.776C78.702 8.992 79.2994 10.7467 79.2994 13.04V15.264C79.2994 17.568 78.702 19.3333 77.5074 20.56C76.3234 21.7867 74.5794 22.4 72.2754 22.4ZM72.2754 19.856C73.5447 19.856 74.51 19.4773 75.1714 18.72C75.8327 17.9627 76.1634 16.8747 76.1634 15.456V12.848C76.1634 11.44 75.8327 10.3627 75.1714 9.616C74.51 8.85867 73.5447 8.48 72.2754 8.48C71.006 8.48 70.0407 8.85867 69.3794 9.616C68.718 10.3627 68.3874 11.44 68.3874 12.848V15.456C68.3874 16.8747 68.718 17.9627 69.3794 18.72C70.0407 19.4773 71.006 19.856 72.2754 19.856ZM89.0879 22.4C86.7839 22.4 85.0345 21.7867 83.8399 20.56C82.6452 19.3333 82.0479 17.568 82.0479 15.264V13.04C82.0479 10.7467 82.6452 8.992 83.8399 7.776C85.0345 6.54933 86.7839 5.936 89.0879 5.936C91.3919 5.936 93.1359 6.54933 94.3199 7.776C95.5145 8.992 96.1119 10.7467 96.1119 13.04V15.264C96.1119 17.568 95.5145 19.3333 94.3199 20.56C93.1359 21.7867 91.3919 22.4 89.0879 22.4ZM89.0879 19.856C90.3572 19.856 91.3225 19.4773 91.9839 18.72C92.6452 17.9627 92.9759 16.8747 92.9759 15.456V12.848C92.9759 11.44 92.6452 10.3627 91.9839 9.616C91.3225 8.85867 90.3572 8.48 89.0879 8.48C87.8185 8.48 86.8532 8.85867 86.1919 9.616C85.5305 10.3627 85.1999 11.44 85.1999 12.848V15.456C85.1999 16.8747 85.5305 17.9627 86.1919 18.72C86.8532 19.4773 87.8185 19.856 89.0879 19.856ZM109.612 22L103.868 14.944H102.316V12.512H103.884L109.388 6.352H113.052L106.204 13.952V13.264L113.324 22H109.612ZM99.4684 22V0.815998H102.588V22H99.4684ZM36.5355 33.115C35.7555 33.115 35.1705 32.93 34.7805 32.56C34.3938 32.1867 34.2005 31.65 34.2005 30.95V30.15C34.2005 29.46 34.3805 28.9267 34.7405 28.55C35.1038 28.17 35.6322 27.98 36.3255 27.98C36.7955 27.98 37.1872 28.0667 37.5005 28.24C37.8138 28.41 38.0488 28.6517 38.2055 28.965C38.3622 29.2783 38.4405 29.65 38.4405 30.08V30.265C38.4405 30.3783 38.4355 30.4933 38.4255 30.61C38.4155 30.7267 38.4022 30.8383 38.3855 30.945H37.4855C37.4922 30.7717 37.4955 30.6083 37.4955 30.455C37.4988 30.3017 37.5005 30.1617 37.5005 30.035C37.5005 29.765 37.4572 29.5367 37.3705 29.35C37.2838 29.1633 37.1538 29.0217 36.9805 28.925C36.8072 28.825 36.5888 28.775 36.3255 28.775C35.9355 28.775 35.6455 28.8867 35.4555 29.11C35.2655 29.33 35.1705 29.645 35.1705 30.055V30.515L35.1755 30.63V31.065C35.1755 31.2483 35.2022 31.415 35.2555 31.565C35.3122 31.715 35.4005 31.845 35.5205 31.955C35.6438 32.0617 35.8022 32.145 35.9955 32.205C36.1888 32.2617 36.4238 32.29 36.7005 32.29C37.0138 32.29 37.3072 32.25 37.5805 32.17C37.8572 32.09 38.1172 31.9833 38.3605 31.85L38.2705 32.685C38.0505 32.815 37.7938 32.92 37.5005 33C37.2105 33.0767 36.8888 33.115 36.5355 33.115ZM34.7205 30.945V30.21H38.1855V30.945H34.7205ZM41.3943 33.115C40.6677 33.115 40.1277 32.9233 39.7743 32.54C39.4243 32.1533 39.2493 31.6083 39.2493 30.905V30.2C39.2493 29.4933 39.426 28.9483 39.7793 28.565C40.1327 28.1817 40.671 27.99 41.3943 27.99C41.5943 27.99 41.7777 28.0083 41.9443 28.045C42.1143 28.0817 42.2677 28.13 42.4043 28.19C42.541 28.2467 42.6577 28.3067 42.7543 28.37L42.8393 29.21C42.6793 29.0967 42.4943 29.0017 42.2843 28.925C42.0743 28.845 41.8293 28.805 41.5493 28.805C41.1027 28.805 40.771 28.9267 40.5543 29.17C40.341 29.41 40.2343 29.76 40.2343 30.22V30.88C40.2343 31.33 40.341 31.6767 40.5543 31.92C40.771 32.1633 41.1027 32.285 41.5493 32.285C41.8327 32.285 42.0827 32.2467 42.2993 32.17C42.516 32.09 42.711 31.9933 42.8843 31.88L42.7993 32.73C42.646 32.8267 42.4493 32.915 42.2093 32.995C41.9727 33.075 41.701 33.115 41.3943 33.115ZM45.7267 33.125C45.0067 33.125 44.46 32.9333 44.0867 32.55C43.7133 32.1667 43.5267 31.615 43.5267 30.895V30.2C43.5267 29.4833 43.7133 28.935 44.0867 28.555C44.46 28.1717 45.0067 27.98 45.7267 27.98C46.4467 27.98 46.9917 28.1717 47.3617 28.555C47.735 28.935 47.9217 29.4833 47.9217 30.2V30.895C47.9217 31.615 47.735 32.1667 47.3617 32.55C46.9917 32.9333 46.4467 33.125 45.7267 33.125ZM45.7267 32.33C46.1233 32.33 46.425 32.2117 46.6317 31.975C46.8383 31.7383 46.9417 31.3983 46.9417 30.955V30.14C46.9417 29.7 46.8383 29.3633 46.6317 29.13C46.425 28.8933 46.1233 28.775 45.7267 28.775C45.33 28.775 45.0283 28.8933 44.8217 29.13C44.615 29.3633 44.5117 29.7 44.5117 30.14V30.955C44.5117 31.3983 44.615 31.7383 44.8217 31.975C45.0283 32.2117 45.33 32.33 45.7267 32.33ZM50.5506 33.115C50.1573 33.115 49.8123 33.075 49.5156 32.995C49.2189 32.9117 48.9706 32.8217 48.7706 32.725L48.6806 31.83C48.9273 31.9533 49.1989 32.0617 49.4956 32.155C49.7923 32.245 50.1256 32.29 50.4956 32.29C50.8523 32.29 51.1156 32.2383 51.2856 32.135C51.4589 32.0283 51.5456 31.8717 51.5456 31.665V31.625C51.5456 31.4917 51.5106 31.3817 51.4406 31.295C51.3706 31.205 51.2456 31.125 51.0656 31.055C50.8889 30.985 50.6373 30.9133 50.3106 30.84C49.9006 30.7467 49.5773 30.6367 49.3406 30.51C49.1039 30.3833 48.9339 30.2283 48.8306 30.045C48.7306 29.8583 48.6806 29.635 48.6806 29.375V29.33C48.6806 28.89 48.8339 28.5567 49.1406 28.33C49.4473 28.1033 49.9073 27.99 50.5206 27.99C50.9073 27.99 51.2439 28.0317 51.5306 28.115C51.8173 28.1983 52.0539 28.2933 52.2406 28.4L52.3306 29.215C52.1073 29.095 51.8523 28.995 51.5656 28.915C51.2823 28.8317 50.9673 28.79 50.6206 28.79C50.3839 28.79 50.1939 28.8133 50.0506 28.86C49.9073 28.9033 49.8039 28.9667 49.7406 29.05C49.6773 29.13 49.6456 29.2267 49.6456 29.34V29.375C49.6456 29.4983 49.6789 29.6067 49.7456 29.7C49.8123 29.79 49.9306 29.8717 50.1006 29.945C50.2739 30.015 50.5139 30.0833 50.8206 30.15C51.2339 30.2367 51.5639 30.3383 51.8106 30.455C52.0573 30.5717 52.2356 30.7217 52.3456 30.905C52.4556 31.085 52.5106 31.3183 52.5106 31.605V31.68C52.5106 32.1567 52.3473 32.515 52.0206 32.755C51.6939 32.995 51.2039 33.115 50.5506 33.115ZM55.6613 32.135L55.1413 32.36L56.5163 28.11H57.5213L55.2963 34.72H54.3063L55.0813 32.425L55.5213 32.795H54.4163L52.8813 28.11H53.8963L55.1163 32.135H55.6613ZM59.8768 33.115C59.4834 33.115 59.1384 33.075 58.8418 32.995C58.5451 32.9117 58.2968 32.8217 58.0968 32.725L58.0068 31.83C58.2534 31.9533 58.5251 32.0617 58.8218 32.155C59.1184 32.245 59.4518 32.29 59.8218 32.29C60.1784 32.29 60.4418 32.2383 60.6118 32.135C60.7851 32.0283 60.8718 31.8717 60.8718 31.665V31.625C60.8718 31.4917 60.8368 31.3817 60.7668 31.295C60.6968 31.205 60.5718 31.125 60.3918 31.055C60.2151 30.985 59.9634 30.9133 59.6368 30.84C59.2268 30.7467 58.9034 30.6367 58.6668 30.51C58.4301 30.3833 58.2601 30.2283 58.1568 30.045C58.0568 29.8583 58.0068 29.635 58.0068 29.375V29.33C58.0068 28.89 58.1601 28.5567 58.4668 28.33C58.7734 28.1033 59.2334 27.99 59.8468 27.99C60.2334 27.99 60.5701 28.0317 60.8568 28.115C61.1434 28.1983 61.3801 28.2933 61.5668 28.4L61.6568 29.215C61.4334 29.095 61.1784 28.995 60.8918 28.915C60.6084 28.8317 60.2934 28.79 59.9468 28.79C59.7101 28.79 59.5201 28.8133 59.3768 28.86C59.2334 28.9033 59.1301 28.9667 59.0668 29.05C59.0034 29.13 58.9718 29.2267 58.9718 29.34V29.375C58.9718 29.4983 59.0051 29.6067 59.0718 29.7C59.1384 29.79 59.2568 29.8717 59.4268 29.945C59.6001 30.015 59.8401 30.0833 60.1468 30.15C60.5601 30.2367 60.8901 30.3383 61.1368 30.455C61.3834 30.5717 61.5618 30.7217 61.6718 30.905C61.7818 31.085 61.8368 31.3183 61.8368 31.605V31.68C61.8368 32.1567 61.6734 32.515 61.3468 32.755C61.0201 32.995 60.5301 33.115 59.8768 33.115ZM64.5406 33.1C64.1506 33.1 63.8373 33.0417 63.6006 32.925C63.3639 32.805 63.1923 32.6267 63.0856 32.39C62.9789 32.15 62.9256 31.8517 62.9256 31.495V28.505H63.8956V31.38C63.8956 31.68 63.9639 31.9 64.1006 32.04C64.2373 32.18 64.4673 32.25 64.7906 32.25C64.9839 32.25 65.1689 32.23 65.3456 32.19C65.5223 32.15 65.6856 32.0933 65.8356 32.02L65.7506 32.85C65.5906 32.93 65.4056 32.9917 65.1956 33.035C64.9856 33.0783 64.7673 33.1 64.5406 33.1ZM62.1606 28.95V28.17H65.7906L65.7056 28.95H62.1606ZM62.9356 28.255L62.9306 26.91L63.9106 26.795L63.8706 28.255H62.9356ZM68.7035 33.115C67.9235 33.115 67.3385 32.93 66.9485 32.56C66.5618 32.1867 66.3685 31.65 66.3685 30.95V30.15C66.3685 29.46 66.5485 28.9267 66.9085 28.55C67.2718 28.17 67.8001 27.98 68.4935 27.98C68.9635 27.98 69.3551 28.0667 69.6685 28.24C69.9818 28.41 70.2168 28.6517 70.3735 28.965C70.5301 29.2783 70.6085 29.65 70.6085 30.08V30.265C70.6085 30.3783 70.6035 30.4933 70.5935 30.61C70.5835 30.7267 70.5701 30.8383 70.5535 30.945H69.6535C69.6601 30.7717 69.6635 30.6083 69.6635 30.455C69.6668 30.3017 69.6685 30.1617 69.6685 30.035C69.6685 29.765 69.6251 29.5367 69.5385 29.35C69.4518 29.1633 69.3218 29.0217 69.1485 28.925C68.9751 28.825 68.7568 28.775 68.4935 28.775C68.1035 28.775 67.8135 28.8867 67.6235 29.11C67.4335 29.33 67.3385 29.645 67.3385 30.055V30.515L67.3435 30.63V31.065C67.3435 31.2483 67.3701 31.415 67.4235 31.565C67.4801 31.715 67.5685 31.845 67.6885 31.955C67.8118 32.0617 67.9701 32.145 68.1635 32.205C68.3568 32.2617 68.5918 32.29 68.8685 32.29C69.1818 32.29 69.4751 32.25 69.7485 32.17C70.0251 32.09 70.2851 31.9833 70.5285 31.85L70.4385 32.685C70.2185 32.815 69.9618 32.92 69.6685 33C69.3785 33.0767 69.0568 33.115 68.7035 33.115ZM66.8885 30.945V30.21H70.3535V30.945H66.8885ZM77.6921 33V29.955C77.6921 29.725 77.6621 29.525 77.6021 29.355C77.5454 29.1817 77.4487 29.0483 77.3121 28.955C77.1787 28.8617 76.9971 28.815 76.7671 28.815C76.5471 28.815 76.3571 28.8583 76.1971 28.945C76.0371 29.0317 75.9071 29.1483 75.8071 29.295C75.7104 29.4417 75.6404 29.6083 75.5971 29.795L75.4671 29.115H75.5821C75.6421 28.9183 75.7337 28.735 75.8571 28.565C75.9804 28.395 76.1471 28.2583 76.3571 28.155C76.5671 28.0517 76.8321 28 77.1521 28C77.5121 28 77.8037 28.0717 78.0271 28.215C78.2504 28.355 78.4137 28.5633 78.5171 28.84C78.6204 29.1133 78.6721 29.4483 78.6721 29.845V33H77.6921ZM71.6171 33V28.11H72.5971L72.5571 29.255L72.5971 29.315V33H71.6171ZM74.6571 33V29.955C74.6571 29.725 74.6271 29.525 74.5671 29.355C74.5104 29.1817 74.4137 29.0483 74.2771 28.955C74.1437 28.8617 73.9621 28.815 73.7321 28.815C73.5121 28.815 73.3221 28.8583 73.1621 28.945C73.0021 29.0317 72.8721 29.1483 72.7721 29.295C72.6754 29.4417 72.6054 29.6083 72.5621 29.795L72.4021 29.115H72.6121C72.6654 28.9083 72.7521 28.7217 72.8721 28.555C72.9954 28.385 73.1587 28.25 73.3621 28.15C73.5654 28.05 73.8154 28 74.1121 28C74.5654 28 74.9087 28.1167 75.1421 28.35C75.3754 28.5833 75.5221 28.9233 75.5821 29.37C75.5987 29.4333 75.6104 29.505 75.6171 29.585C75.6271 29.665 75.6321 29.7433 75.6321 29.82V33H74.6571Z" fill="#F28A2E"/>
</svg>
