<svg width="36" height="36" viewBox="0 0 36 36" fill="none" xmlns="http://www.w3.org/2000/svg">
<path d="M20.3523 36H15.6736C14.452 36 13.4903 35.0144 13.4903 33.8213V24.8213C13.4903 23.6023 12.5025 22.6426 11.3069 22.6426H2.18339C0.961733 22.6426 0 21.6571 0 20.464V15.6398C0 14.4207 0.987726 13.4611 2.18339 13.4611H11.2549C12.4765 13.4611 13.4383 12.4755 13.4383 11.2824V2.17867C13.4383 0.959654 14.426 0 15.6217 0H20.3004C21.522 0 22.4838 0.985591 22.4838 2.17867V11.2305C22.4838 12.4496 23.4715 13.4092 24.6671 13.4092H33.8166C35.0383 13.4092 36 14.3948 36 15.5879V20.4121C36 21.6311 35.0123 22.5908 33.8166 22.5908H24.6671C23.4455 22.5908 22.4838 23.5764 22.4838 24.7695V33.7695C22.4838 34.9885 21.496 35.9481 20.3004 35.9481L20.3523 36Z" fill="#2A9D8F"/>
</svg>
