<svg width="50" height="49" viewBox="0 0 50 49" fill="none" xmlns="http://www.w3.org/2000/svg">
<path d="M12.1044 11.6204C13.6829 11.194 15.0744 11.661 16.3395 12.5869C17.0408 13.1081 17.6296 13.7279 18.1284 14.4563C19.1282 15.9684 19.7226 17.5958 19.4837 19.4437C19.2892 20.8634 18.6293 21.9909 17.2024 22.4724C16.1911 22.8159 15.2098 22.6433 14.2628 22.2146C12.453 21.3817 11.2301 19.9723 10.4736 18.1628C10.1982 17.4812 9.99838 16.7523 9.9092 16.0192C9.71636 14.4649 10.0891 13.0715 11.339 12.021L12.1044 11.6204V11.6204Z" fill="white"/>
<path d="M16.2695 40.7951C15.7081 39.3048 15.7139 37.7318 16.2544 36.2378C16.7297 34.918 17.3115 33.6329 17.8482 32.3274C18.34 31.151 18.674 29.9031 18.8462 28.6227C19.0549 27.1415 19.3702 25.695 20.0954 24.3933C20.7531 23.2105 21.6365 22.2792 22.9528 21.8021C24.5803 21.2077 26.1518 21.6067 27.7424 22.354C28.3573 22.646 28.915 23.0343 29.4359 23.4739C31.413 25.1975 33.6393 26.4907 36.0373 27.4948C36.9719 27.8907 37.8533 28.3441 38.606 29.0516C39.7034 30.0782 40.285 31.3738 40.6005 32.8071C40.8954 34.136 40.9855 35.4672 40.5103 36.787C39.9187 38.3937 38.7424 39.3417 37.1497 39.8295C35.6941 40.2844 34.3754 40.5568 32.8783 40.6532C32.1656 40.6973 31.4427 40.764 30.7691 40.9616C29.7167 41.2459 28.8452 41.9108 27.9839 42.5532C27.01 43.2941 25.8741 43.8529 24.8346 44.4689C23.7971 45.1403 22.6363 45.4841 21.3806 45.3774C19.8524 45.2425 18.6817 44.468 17.7991 43.267C17.2265 42.4916 16.7726 41.6341 16.2757 40.8115C16.3084 40.7991 16.2429 40.8238 16.2757 40.8115L16.2695 40.7951Z" fill="white"/>
<path d="M21.6741 14.6352C20.8387 12.07 20.7819 9.73516 21.9685 7.47418C22.481 6.40218 23.2002 5.23361 24.3301 4.80792C25.9023 4.21566 27.3274 5.26834 28.4454 6.39932C29.7131 7.67959 30.3177 9.28448 30.5129 11.0436C30.7185 12.9297 30.4447 14.7346 29.3719 16.3543C28.3358 17.9228 26.7228 18.6052 25.0978 18.1141C23.9831 17.786 23.1627 17.0478 22.5058 16.0984C22.1589 15.5746 21.8815 14.9872 21.6618 14.6025L21.6741 14.6352Z" fill="white"/>
<path d="M14.3348 27.8164C14.723 28.5491 14.9249 29.3332 14.9569 30.1627C15.0504 32.4464 13.3793 33.9175 11.1216 33.5338C9.35961 33.2251 8.04724 32.2234 6.99643 30.824C6.2145 29.7909 5.72117 28.6303 5.67001 27.3031C5.5641 24.9867 6.84392 23.4199 9.12015 23.8528C10.9497 24.1921 12.7171 25.3589 13.7762 26.83C13.8808 26.9589 13.9753 27.1103 14.0533 27.2679C14.1601 27.4521 14.228 27.6322 14.3184 27.8226L14.3348 27.8164Z" fill="white"/>
<path d="M33.9405 19.7947C33.5482 17.661 33.3126 16.2911 34.5941 14.4806C35.2563 13.5579 36.5959 12.2491 37.7551 12.149C39.0637 12.0487 40.0458 12.6699 40.7826 13.6827C42.0408 15.434 42.2322 17.3816 41.8298 19.4407C41.5878 20.6352 41.0815 21.7235 40.2123 22.5933C38.5741 24.2016 36.3966 24.0308 35.0297 22.1894C34.5043 21.4897 34.1591 20.7222 33.9569 19.7885L33.9405 19.7947Z" fill="white"/>
</svg>
